<svg xmlns="http://www.w3.org/2000/svg" width="579" height="183" viewBox="0 0 579 183" fill="none"><path d="M55.8832 105.628V82.5364C55.8832 73.7581 51.3522 68.7964 41.5347 68.7964C31.7177 68.7964 27.1864 73.7581 27.1864 82.5364V105.628C27.1864 114.406 31.7177 119.368 41.5347 119.368C51.3522 119.368 55.8832 114.406 55.8832 105.628ZM0 104.864V83.2999C0 64.2163 8.87332 45.7049 41.5347 45.7049C74.1963 45.7049 83.0696 64.2163 83.0696 83.2999V104.864C83.0696 123.948 74.1963 142.459 41.5347 142.459C8.87332 142.459 0 123.948 0 104.864Z" fill="white"></path><path d="M156.508 140.551V79.1014C156.508 74.903 154.62 72.4223 149.9 72.4223C144.992 72.4223 135.93 75.8573 130.077 79.1014V140.551H102.891V47.6133H123.091L125.924 54.6742C137.251 49.14 151.977 45.7049 162.55 45.7049C178.22 45.7049 183.695 57.537 183.695 75.4757V140.551H156.508Z" fill="white"></path><path d="M276.959 140.551V9.63682L304.145 5.82001V140.551H276.959ZM260.155 29.8656C256.38 29.1023 252.415 28.7204 249.204 28.7204C240.52 28.7204 239.954 32.5373 239.954 38.6441V49.5217H260.533L258.645 72.0405H239.954V140.551H212.768V72.0405H198.797V49.5217H212.768V35.5906C212.768 16.507 221.641 5.82001 243.918 5.82001C251.66 5.82001 257.135 6.5835 263.553 8.30087L260.155 29.8656Z" fill="white"></path><path d="M343.602 178.146L354.363 140.551H345.679L317.36 47.6132H344.924L363.615 113.452L382.304 47.6132H409.869L380.982 140.551L369.278 178.146H343.602Z" fill="white"></path><path fill-rule="evenodd" clip-rule="evenodd" d="M550.072 57.3812C546.499 60.1395 542.637 62.5391 538.537 64.5083C535.471 57.2308 531.506 50.4341 526.798 44.2487C529.748 45.0983 532.599 46.182 535.339 47.4691L532.746 50.9023L538.844 52.5535L541.263 50.6868C544.409 52.6394 547.359 54.8802 550.072 57.3812ZM569.057 98.3096H545.829C545.55 88.2195 543.68 78.5324 540.469 69.4916C545.247 67.2321 549.73 64.4382 553.85 61.1958C562.782 71.0725 568.43 84.0308 569.057 98.3096ZM553.046 141.617C549.207 138.164 544.955 135.171 540.37 132.73C543.643 123.609 545.548 113.825 545.829 103.63H569.057C568.412 118.334 562.441 131.638 553.046 141.617ZM526.787 157.694C531.44 151.586 535.367 144.882 538.419 137.706C542.313 139.828 545.939 142.386 549.236 145.312C542.837 150.988 535.201 155.272 526.787 157.694ZM513.41 159.881V130.741C520.584 131.063 527.419 132.693 533.69 135.403C530.02 144.109 524.934 152.211 518.555 159.42C516.863 159.648 515.146 159.802 513.41 159.881ZM513.41 103.63H540.563C540.291 112.899 538.607 121.921 535.611 130.444C528.745 127.497 521.26 125.74 513.41 125.416V103.63ZM513.41 76.0846C521.209 75.7937 528.683 74.2172 535.633 71.5566C538.616 80.0614 540.293 89.0631 540.563 98.3096H513.41V76.0846ZM513.41 42.0596C515.144 42.1375 516.859 42.2915 518.551 42.5191C524.941 49.7423 530.038 57.8598 533.712 66.5854C527.358 69.0192 520.529 70.4716 513.41 70.7601V42.0596ZM508.144 70.7601C501.026 70.4714 494.197 69.0192 487.842 66.5851C491.516 57.8598 496.611 49.7423 503.003 42.5194C504.696 42.2915 506.41 42.1375 508.144 42.0596V70.7601ZM508.144 98.3096H480.991C481.261 89.0631 482.938 80.0614 485.921 71.5564C492.871 74.217 500.345 75.7937 508.144 76.0846V98.3096ZM508.144 125.416C500.295 125.74 492.809 127.497 485.943 130.444C482.947 121.921 481.263 112.899 480.991 103.63H508.144V125.416ZM508.144 159.881C506.408 159.802 504.691 159.648 502.999 159.42C496.62 152.211 491.534 144.109 487.862 135.403C494.135 132.693 500.971 131.063 508.144 130.741V159.881ZM472.318 145.312C475.615 142.386 479.242 139.828 483.136 137.706C486.187 144.882 490.114 151.586 494.767 157.694C486.354 155.272 478.717 150.988 472.318 145.312ZM452.497 103.63H475.725C476.008 113.825 477.911 123.609 481.184 132.73C476.599 135.171 472.347 138.164 468.508 141.617C459.113 131.638 453.142 118.334 452.497 103.63ZM467.704 61.1958C471.824 64.4382 476.307 67.2321 481.088 69.4916C477.874 78.5324 476.004 88.2195 475.725 98.3096H452.497C453.125 84.0308 458.773 71.0725 467.704 61.1958ZM494.756 44.2487C490.048 50.4341 486.084 57.2308 483.017 64.5081C478.917 62.5389 475.056 60.1395 471.482 57.381C478.045 51.3323 485.978 46.7773 494.756 44.2487ZM567.784 30.0975L562.951 28.7886L552.107 2.51691L546.011 0.865653L549.135 25.3619L533.594 21.6116L530.117 12.9917L524.563 11.4876L525.942 21.1752C519.883 19.7152 513.564 18.94 507.064 18.94C462.245 18.94 425.91 55.6661 425.91 100.97C425.91 146.274 462.245 183 507.064 183C510.431 183 513.748 182.789 517.01 182.386C515.763 182.445 514.512 182.478 513.254 182.478C469.403 182.478 433.856 146.546 433.856 102.221C433.856 57.8969 469.403 21.9649 513.254 21.9649C517.262 21.9649 521.2 22.272 525.048 22.8524L525.483 23.0827L519.427 30.8637L524.98 32.3678L532.255 26.6597L547.57 31.2666L538.605 43.1424C530.198 39.0019 520.757 36.6761 510.778 36.6761C475.648 36.6761 447.172 65.4615 447.172 100.97C447.172 136.478 475.648 165.264 510.778 165.264C545.906 165.264 574.383 136.478 574.383 100.97C574.383 78.5097 562.986 58.7432 545.724 47.2461L561.23 35.2825L566.063 36.5913C570.715 37.8512 577.831 39.445 578.61 36.5097V36.5095C579.387 33.5742 572.436 31.3574 567.784 30.0975Z" fill="white"></path></svg>